<?xml version="1.0" encoding="utf-8"?>
<!-- Generator: Adobe Illustrator 25.2.3, SVG Export Plug-In . SVG Version: 6.00 Build 0)  -->
<svg version="1.1" id="Laag_1" xmlns="http://www.w3.org/2000/svg" xmlns:xlink="http://www.w3.org/1999/xlink" x="0px" y="0px"
	 viewBox="0 0 343.54 299.14" style="enable-background:new 0 0 343.54 299.14;" xml:space="preserve">
<style type="text/css">
	.st0{fill:#C0783C;stroke:#000000;stroke-width:0.25;stroke-miterlimit:10;}
	.st1{fill:#C0783C;}
	.st2{stroke:#000000;stroke-width:0.25;stroke-miterlimit:10;}
	.st3{fill:#FFFFFF;stroke:#000000;stroke-width:0.25;stroke-miterlimit:10;}
	.st4{fill:none;stroke:#000000;stroke-width:0.25;stroke-miterlimit:10;}
	.st5{fill:#DC5C55;}
	.st6{fill:#A04B17;}
	.st7{fill:none;stroke:#432918;stroke-miterlimit:10;}
</style>
<path class="st0" d="M39.75,41.99c0,0-4.4-40.54-11.23-40.54S20.7,45.9,25.58,51.76l-5.37,4.96c0,0,2.3,13.81-0.21,17.16
	s-1.05,9.62-1.05,9.62s-5.23,4.81-7.11,5.44c-1.88,0.63-16.74,4.18-1.67,13.39l10.04,0.63c0,0-2.09,14.44,15.27,5.02l9.21-5.44
	c0,0-0.21,41.01,2.72,44.14c2.93,3.14-20.71-10.04-39.75,0.21c0,0-8.16,9-3.14,16.11s2.3,15.27,21.76,8.58c0,0-0.42-5.23-8.37-3.98
	c0,0,5.02-10.67,4.18-13.81c-0.84-3.14,28.87,7.53,28.87,7.53s5.65,18.62,11.09,20.92c0,0-4.39,11.51,6.9,13.81
	c0,0,18.62,16.53,28.03,19.25c0,0,3.14,65.07-1.88,64.86c0,0-32.85,4.18-42.68,5.02c0,0-31.17-13.81-21.76,8.58l29.5-0.21
	c0,0,2.51,3.77,5.65,3.77l73.85,1.05c0,0,6.49-4.18,0.84-14.23c0,0-5.23-49.17,4.39-57.74c0,0,19.25-2.93,22.6-8.79
	c0,0,24.9,90.17,174.28,65.28c0,0-124.96,23.34-146.89-72.5c0,0-4.41-34.37-18.94-38.4c0,0-7.8-30.39-87.68-40.88
	c0,0-30.12-18.02-21.52-51.1c0,0,1.08-20.71-3.5-25.01c0,0,24.47-42.76,20.98-52.72c0,0-35.5,33.89-38.73,42.23L39.75,41.99z"/>
<g>
	<g>
		<path class="st1" d="M65.11,292.91c0.8,0,0.81-1.25,0-1.25C64.3,291.66,64.3,292.91,65.11,292.91L65.11,292.91z"/>
	</g>
</g>
<g>
	<g>
		<path class="st1" d="M66.99,292.59c0.72,0.06,1.44,0.13,2.15,0.29c0.7,0.15,1.37,0.27,2.08,0.12c0.55-0.12,0.58-0.87,0.15-1.14
			c-1.46-0.9-3.36-1.55-5.09-1.38c-1.57,0.16-3.11,0.96-3.86,2.4c-0.37,0.71,0.71,1.35,1.08,0.63c1.41-2.71,5.15-1.86,7.24-0.57
			c0.05-0.38,0.1-0.76,0.15-1.14c-0.62,0.13-1.25-0.1-1.85-0.21c-0.67-0.12-1.36-0.18-2.04-0.24
			C66.19,291.27,66.2,292.52,66.99,292.59L66.99,292.59z"/>
	</g>
</g>
<g>
	<g>
		<path class="st1" d="M61.04,291.6c-0.14-0.01-0.27-0.02-0.41-0.03c0.2,0.26,0.4,0.53,0.6,0.79c0.23-1.15,1.52-2.23,2.69-2.34
			c1.04-0.1,2.48,0.29,3.48,0.61c0.99,0.32,1.8,1.04,2.8,1.32c0.91,0.26,1.8,0.09,2.61-0.36c0.64-0.36,0.19-1.28-0.48-1.14
			c-0.23,0.05-0.46,0.1-0.69,0.14c-0.68,0.14-0.54,1.28,0.17,1.23c2.98-0.22,5.96-0.5,8.93-0.82c0.79-0.09,0.8-1.34,0-1.25
			c-2.97,0.32-5.95,0.59-8.93,0.82c0.06,0.41,0.11,0.82,0.17,1.23c0.23-0.05,0.46-0.1,0.69-0.14c-0.16-0.38-0.32-0.76-0.48-1.14
			c-1.43,0.79-2.53-0.29-3.79-0.85c-1.12-0.49-2.47-0.71-3.67-0.86c-1.98-0.25-4.29,1.2-4.7,3.22c-0.08,0.42,0.18,0.76,0.6,0.79
			c0.14,0.01,0.27,0.02,0.41,0.03C61.84,292.9,61.84,291.65,61.04,291.6L61.04,291.6z"/>
	</g>
</g>
<g>
	<g>
		<path class="st1" d="M83.33,292.3c0.08-0.14,0.08-0.14,0.22-0.22c0.08-0.04,0.21-0.09,0.35-0.12c0.39-0.06,0.81,0,1.2,0
			c0.89,0.01,1.77-0.02,2.66-0.1c0.34-0.03,0.62-0.27,0.62-0.62c0-0.32-0.29-0.65-0.62-0.62c-1.01,0.09-2.03,0.12-3.05,0.09
			c-0.92-0.03-1.96,0.06-2.45,0.97C81.86,292.38,82.94,293.01,83.33,292.3L83.33,292.3z"/>
	</g>
</g>
<path class="st2" d="M72.13,290.37l-2.74,7.08c0,0-10.55-0.22-8.88-5.3C60.51,292.15,62.84,285.3,72.13,290.37z"/>
<path class="st2" d="M40.37,281.46l0.52,12.08l-10.21,0.22c0,0-5.25-12.07,4.37-12.75L40.37,281.46z"/>
<path class="st0" d="M62.34,140.5l15.13,0.27c0,0,5.68,30.41-1.87,30.94c-7.55,0.54-52.82-12.75-52.82-12.75s0.36,9.9-3.6,11.32
	s7.1,1.3,7.1,1.3s1.56,3.14-1.81,4.66c0,0-15.34,1.35-16.52-7.08s2.7-21.75,14.16-22.08s39.74,7.91,39.74,7.91
	S59.81,146.38,62.34,140.5z"/>
<g>
	<g>
		<path class="st1" d="M70.22,141.15c3.22,0,3.22-5,0-5C67,136.15,66.99,141.15,70.22,141.15L70.22,141.15z"/>
	</g>
</g>
<g>
	<g>
		<path class="st1" d="M70.14,136.15c-0.36,0.01-0.72,0.01-1.08,0.02c0.22,1.64,0.44,3.27,0.66,4.91c0.14-0.04,0.29-0.07,0.44-0.09
			c-0.22,0.03-0.44,0.06-0.66,0.09c0.24-0.03,0.49-0.03,0.73,0c-0.22-0.03-0.44-0.06-0.66-0.09c0.12,0.02,0.24,0.04,0.36,0.07
			c0.33,0.1,0.66,0.12,1,0.04c0.33-0.02,0.64-0.11,0.93-0.3c0.17-0.13,0.34-0.26,0.51-0.39c0.24-0.23,0.42-0.49,0.52-0.8
			c0.11-0.19,0.17-0.41,0.17-0.63c0.07-0.33,0.06-0.66-0.04-1c-0.08-0.2-0.17-0.4-0.25-0.6c-0.22-0.38-0.52-0.67-0.9-0.9
			c-0.11-0.08-0.27-0.13-0.38-0.17c-0.13-0.05-0.26-0.13-0.4-0.15c-0.17-0.03-0.52-0.08-0.69-0.09c-0.02,0-0.04,0-0.06,0
			c-0.01,0-0.02,0-0.02,0c-0.22,0.03-0.44,0.06-0.66,0.09c-0.02,0-0.05,0.01-0.07,0.02c-0.33,0.08-0.61,0.23-0.85,0.45
			c-0.27,0.18-0.49,0.41-0.64,0.7c-0.18,0.29-0.28,0.6-0.3,0.93c-0.07,0.33-0.06,0.66,0.04,1c0.08,0.2,0.17,0.4,0.25,0.6
			c0.22,0.38,0.52,0.67,0.9,0.9c0.2,0.08,0.4,0.17,0.6,0.25c0.44,0.12,0.89,0.12,1.33,0c0.02-0.01,0.05-0.01,0.07-0.02
			c-0.22,0.03-0.44,0.06-0.66,0.09c0.03,0,0.06,0,0.1,0c-0.22-0.03-0.44-0.06-0.66-0.09c0.04,0.01,0.08,0.02,0.12,0.03
			c-0.2-0.08-0.4-0.17-0.6-0.25c0.03,0.01,0.06,0.03,0.08,0.05c0.64-1.52,1.28-3.05,1.93-4.57c-0.33-0.09-0.68-0.12-1.02-0.16
			c-0.14-0.02-0.27-0.03-0.41-0.02c-0.34,0.01-0.69,0.07-1.03,0.12c-0.13,0.02-0.27,0.05-0.4,0.09c-0.33,0.08-0.61,0.23-0.85,0.45
			c-0.27,0.18-0.49,0.41-0.64,0.7c-0.08,0.2-0.17,0.4-0.25,0.6c-0.1,0.33-0.12,0.66-0.04,1c0,0.23,0.06,0.44,0.17,0.63
			c0.1,0.31,0.27,0.58,0.52,0.8c0.17,0.13,0.34,0.26,0.51,0.39c0.39,0.23,0.81,0.34,1.26,0.34c0.36-0.01,0.72-0.01,1.08-0.02
			c0.34,0.01,0.67-0.06,0.96-0.22c0.31-0.1,0.58-0.27,0.8-0.52c0.24-0.23,0.42-0.49,0.52-0.8c0.16-0.3,0.23-0.62,0.22-0.96
			c-0.03-0.22-0.06-0.44-0.09-0.66c-0.12-0.42-0.33-0.79-0.64-1.1c-0.17-0.13-0.34-0.26-0.51-0.39
			C71.01,136.27,70.59,136.15,70.14,136.15L70.14,136.15z"/>
	</g>
</g>
<path class="st3" d="M20.21,56.72c0,0,11.12-0.63,8.87,10.09S20,73.87,20,73.87S14.35,65.66,20.21,56.72z"/>
<path class="st4" d="M18.96,83.5c0,0,14.74-6.97,15.92-17.86"/>
<path class="st5" d="M22.75,102.85c0,0,22.56-10.37,22.64-11.93s-7.78,16.68-15.56,16.77C29.83,107.69,21.28,109.59,22.75,102.85z"
	/>
<path class="st4" d="M20.21,102.95c0,0,21.79-8.02,25.17-12.03c0,0-9.06,17.03-15.56,16.77c0,0-9.95,1.36-6.57-5.67"/>
<path class="st3" d="M41.3,58.38c0,0,11.12-0.63,8.87,10.09s-9.07,7.07-9.07,7.07S35.44,67.33,41.3,58.38z"/>
<circle class="st6" cx="23.33" cy="65.75" r="3.07"/>
<circle class="st6" cx="44.65" cy="67.36" r="3.07"/>
<path class="st4" d="M62.06,182.25c0,0,22.82,5.87,36.74-2.58"/>
<path class="st7" d="M20.32,54.62c0,0,5.5-1.98,9.27,2.91"/>
<path class="st7" d="M37.63,57.19c0,0,4.05-4.22,9.6-1.51"/>
<path class="st4" d="M72.13,290.37l44.82-6.66c0,0-4.55-54.27,7.58-59.73"/>
</svg>
